<svg width="58" height="45" viewBox="0 0 58 45" fill="none" xmlns="http://www.w3.org/2000/svg">
<path d="M19.418 44.9997H17.9986L4.81367 8.74356C3.21674 4.36679 2.15212 2.53328 0.0820312 0.758918V0.640625H10.4325V0.758918C9.36787 2.17841 8.65812 5.37226 9.95932 8.92099L20.5464 37.9023L30.3054 11.4051C32.4937 5.5497 30.8968 2.41499 29.6548 0.758918V0.640625H37.5211V0.758918C34.8004 3.24303 33.8541 5.37226 32.198 9.98561L19.418 44.9997Z" fill="white"/>
<path d="M53.3242 36.8018C55.1459 41.6595 55.9354 43.0562 58 44.8779V45H48.3447L49.5654 44.6904C50.5585 44.5249 50.5587 44.3589 48.1016 36.5586L45.5039 29.4414H45.5176L44.6113 27.0244H44.6396L37.2783 6.6875L39.7012 0H39.7207L53.3242 36.8018Z" fill="white"/>
<path d="M22.7119 42.0205L22.7957 42.0657C24.5574 43.0994 25.564 43.2874 27.9129 43.2874L48.2136 43.2874C52.2664 43.2874 51.569 43.0681 53.3307 42.0344L53.4146 42.0344L53.4985 44.7978H53.4146C51.6529 43.764 51.9168 44.9999 49.526 44.9999L27.9129 44.9789C25.5221 44.9789 25.2878 44.9895 22.7119 44.9999L22.7118 44.9789L22.7119 42.0205Z" fill="white"/>
</svg>
