<svg width="20" height="21" viewBox="0 0 20 21" fill="none" xmlns="http://www.w3.org/2000/svg">
<path d="M10 7.5C8.34262 7.5 7 8.8431 7 10.5C7 12.1573 8.34312 13.5 10 13.5C11.6573 13.5 13 12.1569 13 10.5C13 8.8427 11.6569 7.5 10 7.5ZM10 5.5C12.7604 5.5 15 7.7371 15 10.5C15 13.2605 12.7629 15.5 10 15.5C7.23953 15.5 5 13.2629 5 10.5C5 7.73953 7.2371 5.5 10 5.5ZM16.5 5.24915C16.5 5.93926 15.9392 6.49917 15.25 6.49917C14.5599 6.49917 14 5.9384 14 5.24915C14 4.5599 14.5607 4 15.25 4C15.9383 3.99913 16.5 4.5599 16.5 5.24915ZM10 2.5C7.52552 2.5 7.1222 2.50655 5.97129 2.5578C5.18717 2.59461 4.66155 2.70007 4.17318 2.88967C3.73918 3.05799 3.42611 3.25898 3.09254 3.59255C2.75769 3.9274 2.55706 4.23963 2.38942 4.67383C2.19938 5.16332 2.09395 5.68811 2.0578 6.47115C2.00605 7.5752 2 7.96105 2 10.5C2 12.9745 2.00655 13.3778 2.05779 14.5286C2.09462 15.3124 2.20022 15.8388 2.38936 16.326C2.55812 16.7606 2.75952 17.0744 3.09148 17.4064C3.42765 17.7421 3.74081 17.9434 4.17089 18.1094C4.66521 18.3005 5.1905 18.4061 5.97114 18.4422C7.0752 18.4939 7.46105 18.5 10 18.5C12.4745 18.5 12.8778 18.4934 14.0286 18.4422C14.8107 18.4055 15.3375 18.2996 15.826 18.1106C16.2594 17.9423 16.5742 17.7402 16.9064 17.4085C17.2426 17.0718 17.4435 16.7594 17.6097 16.3283C17.8003 15.8358 17.9061 15.3098 17.9422 14.5289C17.9939 13.4248 18 13.0389 18 10.5C18 8.02552 17.9934 7.62221 17.9422 6.47137C17.9054 5.68906 17.7995 5.16149 17.6103 4.67318C17.4424 4.24038 17.2407 3.92635 16.9074 3.59255C16.572 3.25715 16.2606 3.05693 15.8261 2.88942C15.337 2.69954 14.8114 2.59396 14.0288 2.55781C12.9248 2.50605 12.5389 2.5 10 2.5ZM10 0.5C12.7166 0.5 13.0558 0.51 14.1225 0.56C15.1866 0.60917 15.9125 0.7775 16.55 1.025C17.2091 1.27917 17.7658 1.6225 18.3216 2.17833C18.8766 2.73417 19.22 3.2925 19.475 3.95C19.7216 4.58667 19.89 5.31333 19.94 6.3775C19.9875 7.44417 20 7.78333 20 10.5C20 13.2167 19.99 13.5558 19.94 14.6225C19.8908 15.6867 19.7216 16.4125 19.475 17.05C19.2208 17.7092 18.8766 18.2658 18.3216 18.8217C17.7658 19.3767 17.2066 19.72 16.55 19.975C15.9125 20.2217 15.1866 20.39 14.1225 20.44C13.0558 20.4875 12.7166 20.5 10 20.5C7.28333 20.5 6.94416 20.49 5.8775 20.44C4.81333 20.3908 4.08833 20.2217 3.45 19.975C2.79166 19.7208 2.23416 19.3767 1.67833 18.8217C1.1225 18.2658 0.78 17.7067 0.525 17.05C0.2775 16.4125 0.11 15.6867 0.0600002 14.6225C0.0125002 13.5558 0 13.2167 0 10.5C0 7.78333 0.0100002 7.44417 0.0600002 6.3775C0.10916 5.3125 0.2775 4.5875 0.525 3.95C0.77916 3.29167 1.1225 2.73417 1.67833 2.17833C2.23416 1.6225 2.7925 1.28 3.45 1.025C4.0875 0.7775 4.8125 0.61 5.8775 0.56C6.94416 0.5125 7.28333 0.5 10 0.5Z" fill="#4E4E4E"/>
</svg>
