<svg width="32" height="32" viewBox="0 0 32 32" fill="none" xmlns="http://www.w3.org/2000/svg">
<path d="M16 26.205L14.9897 25.2924C12.8137 23.3044 11.0137 21.6027 9.58967 20.1874C8.16589 18.7718 7.042 17.5235 6.218 16.4424C5.394 15.3613 4.81833 14.383 4.491 13.5077C4.16367 12.6326 4 11.7523 4 10.8667C4 9.17092 4.57611 7.74703 5.72833 6.59503C6.88033 5.44281 8.30422 4.8667 10 4.8667C11.1727 4.8667 12.2727 5.1667 13.3 5.7667C14.3273 6.3667 15.2273 7.23937 16 8.3847C16.7727 7.23937 17.6727 6.3667 18.7 5.7667C19.7273 5.1667 20.8273 4.8667 22 4.8667C23.6958 4.8667 25.1197 5.44281 26.2717 6.59503C27.4239 7.74703 28 9.17092 28 10.8667C28 11.7523 27.8363 12.6326 27.509 13.5077C27.1817 14.383 26.606 15.3613 25.782 16.4424C24.958 17.5235 23.8383 18.7718 22.423 20.1874C21.0077 21.6027 19.2034 23.3044 17.0103 25.2924L16 26.205ZM16 24.4C18.1333 22.4718 19.8889 20.8201 21.2667 19.445C22.6444 18.0697 23.7333 16.8765 24.5333 15.8654C25.3333 14.8543 25.8889 13.9586 26.2 13.1784C26.5111 12.3979 26.6667 11.6274 26.6667 10.8667C26.6667 9.53337 26.2222 8.42226 25.3333 7.53337C24.4444 6.64448 23.3333 6.20003 22 6.20003C20.9384 6.20003 19.959 6.50303 19.0617 7.10903C18.1641 7.71503 17.3607 8.62737 16.6513 9.84603H15.3487C14.6222 8.61026 13.8146 7.69359 12.9257 7.09603C12.0368 6.4987 11.0616 6.20003 10 6.20003C8.68378 6.20003 7.57689 6.64448 6.67933 7.53337C5.782 8.42226 5.33333 9.53337 5.33333 10.8667C5.33333 11.6274 5.48889 12.3979 5.8 13.1784C6.11111 13.9586 6.66667 14.8543 7.46667 15.8654C8.26667 16.8765 9.35556 18.0654 10.7333 19.432C12.1111 20.7987 13.8667 22.4547 16 24.4Z" fill="#1C1C1C"/>
</svg>
