<svg width="20" height="19" viewBox="0 0 20 19" fill="none" xmlns="http://www.w3.org/2000/svg">
<path d="M4.00005 2.50042C3.99968 3.31473 3.50565 4.04751 2.75091 4.35322C1.99617 4.65894 1.13144 4.47654 0.56447 3.89204C-0.00250006 3.30753 -0.15848 2.43764 0.17007 1.69256C0.49863 0.947478 1.24611 0.475988 2.06005 0.500418C3.14112 0.532868 4.00054 1.41886 4.00005 2.50042ZM4.06005 5.98042H0.0600499V18.5004H4.06005V5.98042ZM10.3801 5.98042H6.40005V18.5004H10.3401V11.9304C10.3401 8.27039 15.1101 7.93039 15.1101 11.9304V18.5004H19.0601V10.5704C19.0601 4.40042 12.0001 4.63042 10.3401 7.66039L10.3801 5.98042Z" fill="#4E4E4E"/>
</svg>
