<svg width="40" height="40" viewBox="0 0 40 40" fill="none" xmlns="http://www.w3.org/2000/svg">
<rect x="0.5" y="0.5" width="39" height="39" rx="19.5" stroke="#DCCACA"/>
<path d="M12 19.3C11.6134 19.3 11.3 19.6134 11.3 20C11.3 20.3866 11.6134 20.7 12 20.7L12 19.3ZM28.495 20.495C28.7683 20.2216 28.7683 19.7784 28.495 19.505L24.0402 15.0503C23.7668 14.7769 23.3236 14.7769 23.0503 15.0503C22.7769 15.3236 22.7769 15.7668 23.0503 16.0402L27.0101 20L23.0503 23.9598C22.7769 24.2332 22.7769 24.6764 23.0503 24.9497C23.3236 25.2231 23.7668 25.2231 24.0402 24.9497L28.495 20.495ZM12 20.7L28 20.7L28 19.3L12 19.3L12 20.7Z" fill="black"/>
</svg>
