<svg width="40" height="40" viewBox="0 0 40 40" fill="none" xmlns="http://www.w3.org/2000/svg">
<rect x="-0.5" y="0.5" width="39" height="39" rx="19.5" transform="matrix(-1 0 0 1 39 0)" stroke="#DCCACA"/>
<path d="M28 19.3C28.3866 19.3 28.7 19.6134 28.7 20C28.7 20.3866 28.3866 20.7 28 20.7L28 19.3ZM11.505 20.495C11.2317 20.2216 11.2317 19.7784 11.505 19.505L15.9598 15.0503C16.2332 14.7769 16.6764 14.7769 16.9497 15.0503C17.2231 15.3236 17.2231 15.7668 16.9497 16.0402L12.9899 20L16.9497 23.9598C17.2231 24.2332 17.2231 24.6764 16.9497 24.9497C16.6764 25.2231 16.2332 25.2231 15.9598 24.9497L11.505 20.495ZM28 20.7L12 20.7L12 19.3L28 19.3L28 20.7Z" fill="black"/>
</svg>
