<svg width="32" height="32" viewBox="0 0 32 32" fill="none" xmlns="http://www.w3.org/2000/svg">
<path d="M14.6667 24C17.2444 24 19.4444 23.0902 21.2667 21.2707C23.0889 19.4509 24 17.2496 24 14.6667C24 12.0889 23.0889 9.88889 21.2667 8.06667C19.4444 6.24444 17.2444 5.33333 14.6667 5.33333C12.0838 5.33333 9.88244 6.24444 8.06267 8.06667C6.24311 9.88889 5.33333 12.0889 5.33333 14.6667C5.33333 17.2496 6.24311 19.4509 8.06267 21.2707C9.88244 23.0902 12.0838 24 14.6667 24ZM14.6667 25.3333C13.188 25.3333 11.8021 25.0551 10.509 24.4987C9.21589 23.9422 8.086 23.1807 7.11933 22.214C6.15267 21.2473 5.39111 20.1174 4.83467 18.8243C4.27822 17.5312 4 16.1453 4 14.6667C4 13.1931 4.27822 11.8098 4.83467 10.5167C5.39111 9.22356 6.15267 8.09233 7.11933 7.123C8.086 6.15389 9.21589 5.39111 10.509 4.83467C11.8021 4.27822 13.188 4 14.6667 4C16.1402 4 17.5236 4.27822 18.8167 4.83467C20.1098 5.39111 21.241 6.15389 22.2103 7.123C23.1794 8.09233 23.9422 9.22356 24.4987 10.5167C25.0551 11.8098 25.3333 13.1931 25.3333 14.6667C25.3333 16.0204 25.0958 17.2966 24.6207 18.495C24.1453 19.6932 23.488 20.7718 22.6487 21.7307L28 27.082L27.0743 28L21.723 22.6563C20.7641 23.4957 19.6856 24.1517 18.4873 24.6243C17.2889 25.097 16.0153 25.3333 14.6667 25.3333Z" fill="#1C1C1C"/>
</svg>
