<svg width="32" height="32" viewBox="0 0 32 32" fill="none" xmlns="http://www.w3.org/2000/svg">
<path d="M8.93028 26.6666H2.66699V21.4419L15.2242 15.6356V13.4055C14.2949 13.2223 13.534 12.7595 12.9415 12.017C12.349 11.2745 12.0528 10.4164 12.0528 9.44257C12.0528 8.29974 12.2321 7.29825 12.999 6.49992C13.766 5.70158 14.6545 5.00924 15.9706 4.8717C17.0965 4.75402 17.9209 4.81717 18.791 5.5414C19.7259 6.31946 19.9415 7.3112 19.9415 8.43552H18.3076C18.3076 7.74035 18.2469 7.1047 17.6516 6.67718C17.1244 6.29854 16.6337 6.36379 15.999 6.49997C15.2152 6.66816 14.8034 7.03769 14.3142 7.67277C13.8628 8.25872 13.6216 8.69585 13.6213 9.43552C13.621 10.1755 13.7911 10.6753 14.3133 11.1996C14.8229 11.7112 15.3071 11.8182 16.0245 11.8998C16.3226 11.9336 16.7926 11.8998 16.7926 11.8998V15.6356L29.3337 21.4758V26.6666H23.0657H8.93028ZM4.23589 25.0388H8.93028H23.0657H27.7648V22.5287L16.0216 17.087L4.23589 22.5287V25.0388Z" fill="#1C1C1C"/>
</svg>
