<svg width="42" height="30" viewBox="0 0 42 30" fill="none" xmlns="http://www.w3.org/2000/svg">
<line x1="11.7192" y1="17.0207" x2="34.0414" y2="17.0207" stroke="black" stroke-width="0.558055"/>
<line y1="17.0207" x2="6.32462" y2="17.0207" stroke="black" stroke-width="0.558055"/>
<path d="M8.58984 0.380981H5.61621C5.65753 0.959023 5.78183 1.49574 5.98828 2.15637L13.0498 25.9425L15.2812 18.7882H16.3105L12.8232 29.9904H11.6045L2.56055 0.380981H0V0.0499268H8.58984V0.380981ZM24.8398 0.380981C22.3623 0.381012 21.9489 0.752645 21.4121 2.40442L17.2959 15.6251H16.2686L20.4824 2.11536C20.6063 1.74369 20.6484 1.49525 20.6484 1.20618C20.6482 0.587193 20.0699 0.381053 19.2031 0.380981H17.0967V0.00012207H24.8398V0.380981Z" fill="black"/>
<path d="M38.5459 29.6094H41.2305V29.9395H32.6406V29.6094H35.6553C35.5727 29.1138 35.4074 28.4939 35.2422 27.957L33.3105 21.5332L32.8877 20.0703H32.8887L32.8574 19.9668L32.7861 19.7178H32.7852L26.9727 0H29.5439L38.5459 29.6094Z" fill="black"/>
</svg>
