<svg width="32" height="32" viewBox="0 0 32 32" fill="none" xmlns="http://www.w3.org/2000/svg">
<path d="M15.9999 15.5231C14.6905 15.5231 13.5695 15.0569 12.6371 14.1244C11.7046 13.1919 11.2384 12.071 11.2384 10.7615C11.2384 9.45212 11.7046 8.33117 12.6371 7.3987C13.5695 6.46623 14.6905 6 15.9999 6C17.3093 6 18.4303 6.46623 19.3628 7.3987C20.2952 8.33117 20.7615 9.45212 20.7615 10.7615C20.7615 12.071 20.2952 13.1919 19.3628 14.1244C18.4303 15.0569 17.3093 15.5231 15.9999 15.5231ZM4.88965 27V24.3871C4.88965 23.7319 5.08037 23.1188 5.46183 22.548C5.84354 21.9774 6.35687 21.5343 7.00179 21.2187C8.49956 20.5005 9.99826 19.9618 11.4979 19.6025C12.9975 19.2436 14.4982 19.0641 15.9999 19.0641C17.5017 19.0641 19.0023 19.2436 20.502 19.6025C22.0016 19.9618 23.5003 20.5005 24.9981 21.2187C25.643 21.5343 26.1563 21.9774 26.538 22.548C26.9195 23.1188 27.1102 23.7319 27.1102 24.3871V27H4.88965ZM6.47683 25.4128H25.523V24.3871C25.523 24.035 25.4095 23.7043 25.1826 23.3951C24.9559 23.0859 24.642 22.8244 24.241 22.6106C22.9347 21.9779 21.5879 21.4931 20.2004 21.1564C18.8129 20.8196 17.4128 20.6513 15.9999 20.6513C14.5871 20.6513 13.1869 20.8196 11.7994 21.1564C10.412 21.4931 9.06513 21.9779 7.75888 22.6106C7.35785 22.8244 7.04398 23.0859 6.81728 23.3951C6.59031 23.7043 6.47683 24.035 6.47683 24.3871V25.4128ZM15.9999 13.9359C16.8729 13.9359 17.6202 13.6251 18.2418 13.0034C18.8635 12.3818 19.1743 11.6345 19.1743 10.7615C19.1743 9.8886 18.8635 9.1413 18.2418 8.51965C17.6202 7.898 16.8729 7.58718 15.9999 7.58718C15.127 7.58718 14.3797 7.898 13.758 8.51965C13.1364 9.1413 12.8256 9.8886 12.8256 10.7615C12.8256 11.6345 13.1364 12.3818 13.758 13.0034C14.3797 13.6251 15.127 13.9359 15.9999 13.9359Z" fill="#1C1C1C"/>
</svg>
